<svg xmlns="http://www.w3.org/2000/svg" width="812" height="701" fill="none" viewBox="0 0 812 701"><path fill="url(#paint0_linear)" d="M133.387 350.187C133.387 228.785 233.243 130.989 357.202 130.989C401.965 130.989 443.284 143.354 477.717 165.836L574.13 72.5358C514.446 27.572 438.693 0.59375 357.202 0.59375C159.786 0.59375 0.246094 156.843 0.246094 350.187C0.246094 543.531 159.786 699.781 357.202 699.781V569.386C233.243 569.386 133.387 471.589 133.387 350.187Z"/><path fill="url(#paint1_linear)" d="M581.015 350.192H714.156C714.156 258.016 677.428 173.709 617.744 110.76L523.627 202.935C559.208 242.279 581.015 293.987 581.015 350.192Z"/><path fill="url(#paint2_linear)" d="M466.239 361.43H269.971L616.596 700.906L811.717 699.782L466.239 361.43Z"/><path fill="url(#paint3_linear)" d="M47.3016 175.957C-38.7809 421.01 218.319 523.302 218.319 523.302C190.772 503.069 156.339 455.857 146.01 422.134C124.202 352.44 131.089 297.359 166.669 236.658" opacity=".6"/><defs><linearGradient id="paint0_linear" x1="803.686" x2="178.788" y1="702.01" y2="54.794" gradientUnits="userSpaceOnUse"><stop stop-color="#892C6C"/><stop offset="1" stop-color="#D14671"/></linearGradient><linearGradient id="paint1_linear" x1="143.714" x2="790.93" y1="42.044" y2="692.448" gradientUnits="userSpaceOnUse"><stop stop-color="#C34170"/><stop offset="1" stop-color="#8B2C6C"/></linearGradient><linearGradient id="paint2_linear" x1="774.991" x2="115.023" y1="686.071" y2="42.044" gradientUnits="userSpaceOnUse"><stop stop-color="#882B6B"/><stop offset="1" stop-color="#CF4671"/></linearGradient><linearGradient id="paint3_linear" x1="85.922" x2="175.953" y1="476.222" y2="220.969" gradientUnits="userSpaceOnUse"><stop stop-color="#fff" stop-opacity=".38"/><stop offset=".86" stop-color="#fff" stop-opacity=".01"/><stop offset="1" stop-color="#fff" stop-opacity="0"/></linearGradient></defs></svg>