<svg width="61" height="80" viewBox="0 0 61 80" fill="none" xmlns="http://www.w3.org/2000/svg">
<g clip-path="url(#clip0_253_56)">
<mask id="mask0_253_56" style="mask-type:luminance" maskUnits="userSpaceOnUse" x="0" y="0" width="61" height="80">
<path d="M61 0H0V80H61V0Z" fill="white"/>
</mask>
<g mask="url(#mask0_253_56)">
<path d="M40 5L38.1503 3.13658H37.6503L10 3C8.53498 3 6.03678 4.46885 5 5.5C3.96313 6.53124 3.5 8.54043 3.5 10V40V55V70C3.5 71.4596 4.46313 73.4688 5.5 74.5C6.53678 75.5312 8.53498 76.7166 10 76.7166H30H50.2732C51.7383 76.7166 53.9632 76.0312 55 75C56.0368 73.9688 57.5 71.4596 57.5 70V22.5L55.8005 20H55.3005H50.1502H45C43.1317 20 42.8202 19.813 41.5 18.5C40.1799 17.187 40 16.8556 40 15V10V5ZM10.0546 0.5H37.4986L59.8279 22.7079V70C59.8279 72.5187 58.8219 74.9347 57.0303 76.7166C55.2387 78.4985 52.8081 79.5 50.2732 79.5H10.0546C7.51972 79.5 5.08916 78.4985 3.29753 76.7166C1.50598 74.9347 0.5 72.5187 0.5 70V10C0.5 7.48133 1.50598 5.06526 3.29753 3.28345C5.08916 1.50155 7.51972 0.5 10.0546 0.5Z" fill="white"/>
<path d="M18.8 43.2222H41.2V38.8889H18.8V43.2222ZM32.8 59.1111V46.1111H27.2V59.1111H32.8ZM35.6 59.1111H41.2V46.1111H35.6V59.1111ZM24.4 59.1111V46.1111H18.8V59.1111H24.4ZM17.4 36H42.6C42.9713 36 43.3274 36.1522 43.5899 36.4231C43.8525 36.694 44 37.0614 44 37.4444V60.5556C44 60.9386 43.8525 61.306 43.5899 61.5769C43.3274 61.8478 42.9713 62 42.6 62H17.4C17.0287 62 16.6726 61.8478 16.4101 61.5769C16.1475 61.306 16 60.9386 16 60.5556V37.4444C16 37.0614 16.1475 36.694 16.4101 36.4231C16.6726 36.1522 17.0287 36 17.4 36Z" fill="white"/>
</g>
</g>
<defs>
<clipPath id="clip0_253_56">
<rect width="61" height="80" fill="white"/>
</clipPath>
</defs>
</svg>
