<svg width="36" height="38" viewBox="0 0 36 38" fill="none" xmlns="http://www.w3.org/2000/svg">
<path d="M4 19C4 19.626 4.922 20.716 7.06 21.786C9.828 23.17 13.754 24 18 24C22.246 24 26.172 23.17 28.94 21.786C31.078 20.716 32 19.626 32 19V14.658C28.7 16.698 23.654 18 18 18C12.346 18 7.3 16.696 4 14.658V19ZM32 24.658C28.7 26.698 23.654 28 18 28C12.346 28 7.3 26.696 4 24.658V29C4 29.626 4.922 30.716 7.06 31.786C9.828 33.17 13.754 34 18 34C22.246 34 26.172 33.17 28.94 31.786C31.078 30.716 32 29.626 32 29V24.658ZM0 29V9C0 4.03 8.06 0 18 0C27.94 0 36 4.03 36 9V29C36 33.97 27.94 38 18 38C8.06 38 0 33.97 0 29ZM18 14C22.246 14 26.172 13.17 28.94 11.786C31.078 10.716 32 9.626 32 9C32 8.374 31.078 7.284 28.94 6.214C26.172 4.83 22.246 4 18 4C13.754 4 9.828 4.83 7.06 6.214C4.922 7.284 4 8.374 4 9C4 9.626 4.922 10.716 7.06 11.786C9.828 13.17 13.754 14 18 14Z" fill="#F8F8F2"/>
</svg>
