<svg xmlns="http://www.w3.org/2000/svg" xmlns:xlink="http://www.w3.org/1999/xlink" viewBox="0 0 95 23">
  <defs>
    <path id="reuse-0" fill-opacity=".6" d="M0 0h95v23H0z"/>
  </defs>
  <defs>
    <linearGradient id="e" x1="323.795" x2="72.1141" y1="283.316" y2="22.6459" gradientTransform="scale(.08058 .08127)" gradientUnits="userSpaceOnUse">
      <stop offset="0" stop-color="#892c6c"/>
      <stop offset="1" stop-color="#d14671"/>
    </linearGradient>
    <linearGradient id="f" x1="57.9878" x2="318.658" y1="17.5099" y2="279.464" gradientTransform="scale(.08058 .08127)" gradientUnits="userSpaceOnUse">
      <stop offset="0" stop-color="#c34170"/>
      <stop offset="1" stop-color="#8b2c6c"/>
    </linearGradient>
    <linearGradient id="h" x1="312.238" x2="46.4317" y1="276.898" y2="17.5118" gradientTransform="scale(.08058 .08127)" gradientUnits="userSpaceOnUse">
      <stop offset="0" stop-color="#882b6b"/>
      <stop offset="1" stop-color="#cf4671"/>
    </linearGradient>
    <linearGradient id="c" x1="34.7127" x2="70.973" y1="192.381" y2="89.5761" gradientTransform="scale(.08058 .08127)" gradientUnits="userSpaceOnUse">
      <stop offset="0" stop-color="#fff" stop-opacity=".380392"/>
      <stop offset=".8598" stop-color="#fff" stop-opacity=".0117647"/>
      <stop offset="1" stop-color="#fff" stop-opacity="0"/>
    </linearGradient>
    <clipPath id="d">
      <path d="M.015625.0664062H19V22.988281H.015625zm0 0"/>
    </clipPath>
    <clipPath id="g">
      <path d="M8 11h18.351562v11.988281H8zm0 0"/>
    </clipPath>
    <clipPath id="i">
      <path d="M.015625.0664062h26.335937V22.988281H.015625zm0 0"/>
    </clipPath>
    <clipPath id="b">
      <use xlink:href="#reuse-0"/>
    </clipPath>
    <filter id="a" width="100%" height="100%" x="0%" y="0%" filterUnits="objectBoundingBox">
      <feColorMatrix in="SourceGraphic" values="0 0 0 0 1 0 0 0 0 1 0 0 0 0 1 0 0 0 1 0"/>
    </filter>
    <mask id="k">
      <g filter="url(#a)">
        <use fill-opacity=".6" xlink:href="#reuse-0"/>
      </g>
    </mask>
    <g id="j" clip-path="url(#b)">
      <path fill="url(#c)" d="M1.542969 5.808594C-1.25 13.828125 7.09375 17.175781 7.09375 17.175781c-.894531-.660156-2.011719-2.207031-2.347656-3.3125-.707032-2.28125-.484375-4.082031.671875-6.070312"/>
    </g>
  </defs>
  <path fill="#fff" d="M79.289062 17.136719c3.59375 0 5.722657-2.25 5.722657-5.988281 0-3.722657-2.128907-5.964844-5.640625-5.964844h-4.074219v11.953125zm-1.859374-1.871094V7.058594H79.25c2.394531 0 3.640625 1.355468 3.640625 4.089844 0 2.75-1.246094 4.117187-3.703125 4.117187zm0 0M86.207031 17.136719h4.769531C93.675781 17.136719 95 15.742188 95 13.882812c0-1.808593-1.265625-2.871093-2.519531-2.9375v-.117187c1.148437-.273437 2.058593-1.089844 2.058593-2.542969 0-1.78125-1.265624-3.101562-3.820312-3.101562h-4.511719zm2.132813-1.808594v-3.5h2.355468c1.316407 0 2.132813.816406 2.132813 1.882813 0 .953124-.644531 1.617187-2.191406 1.617187zm0-5.058594V6.972656H90.5c1.253906 0 1.90625.667969 1.90625 1.59375 0 1.046875-.84375 1.703125-1.953125 1.703125zm0 0M40.621094 11.175781c0-3.785156-2.277344-6.015625-5.304688-6.015625-3.03125 0-5.304687 2.230469-5.304687 6.015625 0 3.777344 2.273437 6.011719 5.304687 6.011719.734375 0 1.421875-.132812 2.046875-.382812l.953125 1.226562h2.027344l-1.601562-2.078125c1.160156-1.03125 1.878906-2.660156 1.878906-4.777344zm-6.015625 1.917969l1.5625 2.082031c-.269531.074219-.554688.109375-.851563.109375-1.878906 0-3.203125-1.449218-3.203125-4.109375 0-2.664062 1.324219-4.113281 3.203125-4.113281 1.882813 0 3.203125 1.449219 3.203125 4.113281 0 1.4375-.386719 2.519531-1.039062 3.210938L36.5 13.09375zm0 0M47.355469 13.179688c0 1.335937-.941407 2-1.84375 2-.980469 0-1.632813-.703126-1.632813-1.820313V8.089844h-2.039062v5.589844c0 2.109374 1.164062 3.367187 2.867187 3.367187 1.296875 0 2.226563-.753906 2.621094-1.738281h.089844v1.738281h1.976562V8.089844h-2.039062zm0 0M54.804688 17.199219c2.019531 0 3.40625-1 3.765624-2.527344l-1.90625-.21875c-.273437.746094-.953124 1.132813-1.832031 1.132813-1.316406 0-2.191406-.878907-2.207031-2.382813h6.03125v-.632813c0-3.082031-1.828125-4.4375-3.957031-4.4375-2.480469 0-4.097657 1.847657-4.097657 4.554688 0 2.757812 1.59375 4.511719 4.203126 4.511719zm-2.175782-5.390625c.0625-1.121094.878906-2.0625 2.097656-2.0625 1.171876 0 1.960938.867187 1.972657 2.0625zm0 0M66.945312 10.566406c-.28125-1.484375-1.453124-2.433594-3.480468-2.433594-2.085938 0-3.507813 1.039063-3.5 2.664063-.007813 1.28125.769531 2.125 2.433594 2.476563l1.476562.3125c.796875.175781 1.167969.503906 1.167969 1 0 .601562-.644531 1.050781-1.613281 1.050781-.933594 0-1.542969-.410157-1.71875-1.199219l-1.988282.195312c.253906 1.609376 1.589844 2.566407 3.714844 2.566407 2.164062 0 3.691406-1.136719 3.695312-2.800781-.003906-1.253907-.800781-2.019532-2.433593-2.378907l-1.476563-.320312C62.34375 11.5 61.992188 11.191406 62 10.683594c-.007812-.59375.640625-1.007813 1.492188-1.007813.941406 0 1.4375.519531 1.59375 1.097657zm0 0M73.160156 8.246094h-1.710937V6.144531h-2.039063v2.101563h-1.226562v1.601562h1.226562v4.882813c-.011718 1.652343 1.171875 2.460937 2.707032 2.417969.578124-.019532.980468-.132813 1.199218-.207032l-.34375-1.617187c-.113281.027343-.34375.078125-.597656.078125-.511719 0-.925781-.179688-.925781-1.015625V9.847656h1.710937zm0 0"/>
  <g clip-path="url(#d)">
    <path fill="url(#e)" d="M4.335938 11.507812c0-3.972656 3.242187-7.171874 7.265624-7.171874 1.453126 0 2.792969.402343 3.910157 1.140624l3.128906-3.054687C16.703125.949219 14.246094.0664062 11.601562.0664062 5.195312.0664062.015625 5.179688.015625 11.507812c0 6.332032 5.179687 11.445313 11.585937 11.445313v-4.269531c-4.023437 0-7.265624-3.199219-7.265624-7.175782zm0 0"/>
  </g>
  <path fill="url(#f)" d="M18.863281 11.507812h4.320313c0-3.015624-1.191406-5.773437-3.128906-7.835937L17 6.691406c1.15625 1.285156 1.863281 2.976563 1.863281 4.816406zm0 0"/>
  <g clip-path="url(#g)">
    <path fill="url(#h)" d="M15.140625 11.878906H8.769531l11.25 11.109375 6.332031-.035156zm0 0"/>
  </g>
  <g clip-path="url(#i)">
    <use mask="url(#k)" xlink:href="#j"/>
  </g>
</svg>
